inDegrees=yes
name=ik_lifting_orientations
DataType=double
version=3
OpenSimVersion=4.5-2024-01-10-34fd6af
endheader
time	pelvis_tilt	pelvis_list	pelvis_rotation	pelvis_tx	pelvis_ty	pelvis_tz	hip_flexion_r	hip_adduction_r	hip_rotation_r	knee_angle_r	knee_angle_r_beta	ankle_angle_r	subtalar_angle_r	mtp_angle_r	hip_flexion_l	hip_adduction_l	hip_rotation_l	knee_angle_l	knee_angle_l_beta	ankle_angle_l	subtalar_angle_l	mtp_angle_l	lumbar_extension	lumbar_bending	lumbar_rotation	arm_flex_r	arm_add_r	arm_rot_r	elbow_flex_r	pro_sup_r	wrist_flex_r	wrist_dev_r	arm_flex_l	arm_add_l	arm_rot_l	elbow_flex_l	pro_sup_l	wrist_flex_l	wrist_dev_l
0.02	0.001210715804954426	1.566114405403428e-05	-90.05317809885898	0	0.9399999998679526	0	45.96530383337873	-10.59184991878339	0	60.43316538641145	1.054757713395151	-5.192621170331573	0	0	45.96530383337873	-10.59184991878339	0	60.43316538641145	1.054757713395151	-5.192621170331573	0	0	-0.0006404836294218236	0.0006387308012646381	0.00199747479782159	-0.2397952284661583	-0.06006210458375322	-0.004886623165640955	0.5025430381584925	1.122598915107627	0	0	0	-12.12273097584353	0	88.91123386512055	1.122598915107627	0	0
0.03	-0.009938770120841744	-0.01340788177647174	-90.22904736394185	0	0.9399999998679526	0	45.96514402121436	-10.59150797701725	0	60.43310906910276	1.054756730472689	-5.192476067477759	0	0	45.96514402121436	-10.59150797701725	0	60.43310906910276	1.054756730472689	-5.192476067477759	0	0	0.06540831914468778	-0.06975833670364545	0.2442617983510433	-0.4429754095238694	0.01780892368072204	0.180941719311667	0.5889731808628098	1.122469554749742	0	0	0	-12.12297514345373	0	88.91135930574151	1.122469554749742	0	0
0.04	0.001477457534233268	-0.005565314841983321	-90.38088662798431	0	0.9399999998679526	0	45.96488999991202	-10.59096269852983	0	60.43301981198202	1.054755172642051	-5.19224455731114	0	0	45.96488999991202	-10.59096269852983	0	60.43301981198202	1.054755172642051	-5.19224455731114	0	0	0.1077107440699548	-0.1035655396100118	0.6861472688713034	-0.685701151204929	0.05899272577135959	0.09591025858452429	0.7088111848861793	1.12226415805741	0	0	0	-12.12336247079478	0	88.91155847871812	1.12226415805741	0	0
0.05	-0.04901227533813907	-0.05034998482100805	-90.49516103216065	0	0.9399999998679526	0	45.96463848137699	-10.59042316605834	0	60.43293142826139	1.054753630055121	-5.192015553547307	0	0	45.96463848137699	-10.59042316605834	0	60.43293142826139	1.054753630055121	-5.192015553547307	0	0	-0.102261653459775	0.07877251500486526	1.270924027250462	-0.7217685343148205	-0.1304014283512839	-0.1580572489697168	0.8871995418765745	1.12206076769953	0	0	0	-12.12374603435546	0	88.91175570615502	1.12206076769953	0	0
0.06	-0.02544362496436465	-0.04520151217724004	-90.4983343510643	0	0.9399999998679526	0	45.96442990687319	-10.58997662764614	0	60.43285804688114	1.054752349308426	-5.19182611551972	0	0	45.96442990687319	-10.58997662764614	0	60.43285804688114	1.054752349308426	-5.19182611551972	0	0	-0.4070570202877368	0.3167288501394329	1.759974254923014	-0.699162795659678	-0.4836467443688512	-0.389884474527681	1.070669732565964	1.121892017602384	0	0	0	-12.12406440554748	0	88.91191934296749	1.121892017602384	0	0
0.07000000000000001	-0.04212202008834335	-0.05590900100272642	-90.45636344438087	0	0.9399999998679526	0	45.96419715918199	-10.58947832111025	0	60.43277619772952	1.05475092077124	-5.191614743439244	0	0	45.96419715918199	-10.58947832111025	0	60.43277619772952	1.05475092077124	-5.191614743439244	0	0	-0.8085990537591912	0.6601384840557836	2.389285943557812	-0.5888151531883773	-0.7956119742942834	-0.7611557617984064	1.264071450948237	1.12170373286435	0	0	0	-12.12441958822191	0	88.91210192250236	1.12170373286435	0	0
0.08	-0.07986529512711472	-0.096681581045182	-90.5824333160172	0	0.9399999998679526	0	45.96395261633928	-10.58895512636201	0	60.43269019470652	1.054749419735322	-5.191392879194751	0	0	45.96395261633928	-10.58895512636201	0	60.43269019470652	1.054749419735322	-5.191392879194751	0	0	-1.420637033213144	1.152753599199061	3.301012781324624	-0.3937744203403915	-1.329093716726672	-1.202577152799025	1.548840932346455	1.121505889577755	0	0	0	-12.12479282070209	0	88.91229377095371	1.121505889577755	0	0
0.09	-0.1225228029928773	-0.104914800200884	-90.76468991050511	0	0.9399999998679526	0	45.95529440968899	-10.57592670520697	0	60.42890649195482	1.054683381664388	-5.186302806349081	0	0	45.95529440968899	-10.57592670520697	0	60.42890649195482	1.054683381664388	-5.186302806349081	0	0	-1.849595915011228	1.771893691198415	-1.985438881040772	-0.1181926408473925	-2.0187626061185	4.43880174851363	1.83004127572834	1.113841700590571	0	0	0	-12.14031500155623	0	88.9197257536586	1.113841700590571	0	0
0.1	-0.1325789794576194	-0.1508347417705659	-90.97016857928867	0	0.9399999998679526	0	45.95503549763188	-10.57538467087175	0	60.42881488508957	1.054681782822972	-5.186074437074826	0	0	45.95503549763188	-10.57538467087175	0	60.42881488508957	1.054681782822972	-5.186074437074826	0	0	-2.306563827428069	2.25652285067428	-5.295373236696517	0.1844732057584005	-2.542575328559813	8.179390898003744	2.012749317572015	1.113631289173472	0	0	0	-12.14071327945146	0	88.91992978946115	1.113631289173472	0	0
0.11	-0.1359951051595912	-0.1353267242816982	-91.03196323504649	0	0.9399999998679526	0	45.9547302413348	-10.57474488063123	0	60.42870701939591	1.054679900211468	-5.185804854918447	0	0	45.9547302413348	-10.57474488063123	0	60.42870701939591	1.054679900211468	-5.185804854918447	0	0	-2.633753882928726	2.702808402933698	-7.659765757173634	0.3545777548728001	-3.075014016906903	10.79351241852092	2.295122287576405	1.113383324301263	0	0	0	-12.14118246006496	0	88.92017024081879	1.113383324301263	0	0
0.12	-0.1286896552446236	-0.1529901273986078	-91.10205568186539	0	0.9399999998679526	0	45.95447462725005	-10.5742096611289	0	60.42861666893755	1.054678323298488	-5.185579413610401	0	0	45.95447462725005	-10.5742096611289	0	60.42861666893755	1.054678323298488	-5.185579413610401	0	0	-3.068562497491481	3.252758939847455	-9.897676543233045	0.5693177047899828	-3.697037234061255	13.22271625064738	2.69623009663409	1.113175648053771	0	0	0	-12.14157546046835	0	88.92037162432777	1.113175648053771	0	0
0.13	-0.1314153287625077	-0.1491066209598741	-91.1744463595051	0	0.9399999998679526	0	45.95420606356954	-10.57364739068186	0	60.42852177450702	1.054676667078234	-5.185342617614629	0	0	45.95420606356954	-10.57364739068186	0	60.42852177450702	1.054676667078234	-5.185342617614629	0	0	-3.549281984247803	3.876534508630882	-11.65612106550076	0.8313882780307902	-4.413154400327389	15.20628664513576	3.146587800061489	1.112957467571081	0	0	0	-12.14198830486416	0	88.9205831937858	1.112957467571081	0	0
0.14	-0.1857701043812389	-0.1875506952769683	-91.30558114316756	0	0.9399999998679526	0	45.95388031083504	-10.57296466035102	0	60.42840682906893	1.054674660901879	-5.18505507916137	0	0	45.95388031083504	-10.57296466035102	0	60.42840682906893	1.054674660901879	-5.18505507916137	0	0	-4.065079604047194	4.583128225070959	-13.40385835151602	1.192648418485165	-5.14431965378759	17.22509921219395	3.51631226676434	1.112692948234184	0	0	0	-12.14248862766361	0	88.9208396979933	1.112692948234184	0	0
